<?xml version="1.0" encoding="utf-8"?>
<!-- Generator: Adobe Illustrator 22.1.0, SVG Export Plug-In . SVG Version: 6.00 Build 0)  -->
<svg version="1.1" id="Ebene_1" xmlns="http://www.w3.org/2000/svg" xmlns:xlink="http://www.w3.org/1999/xlink" x="0px" y="0px"
	 viewBox="0 0 106 40" style="enable-background:new 0 0 106 40;" xml:space="preserve">
<style type="text/css">
	.st0{fill:#003781;}
</style>
<path id="Fill-3" class="st0" d="M9.7,14.2H6.1l1.9-6.5L9.7,14.2z M4.2,21.2L5.4,17h4.9l1.2,4.2H16L11.5,5.1
	c-0.3-0.9-0.8-1.4-1.9-1.4H3.3v1.5h0.5c0.7,0,1.1,0.3,1.1,0.8c0,0.3-0.1,0.5-0.4,1.4L0,21.2H4.2z M21.2,21.2V5.1
	c0-0.9-0.5-1.4-1.3-1.4H16v1.5h0.1c0.8,0,1.1,0.3,1.1,0.9v15H21.2z M28.1,21.2V5.1c0-0.9-0.5-1.4-1.3-1.4h-4v1.5H23
	c0.7,0,0.9,0.3,0.9,0.9v15H28.1z M35.1,5.3c0-1.1-0.8-1.8-2.4-1.8c-1.3,0-2.2,0.7-2.2,1.8c0,1.2,0.9,1.9,2.2,1.9
	C34.3,7.2,35.1,6.5,35.1,5.3L35.1,5.3z M34.9,21.2V9.5c0-0.8-0.4-1.4-1.2-1.4h-4v1.5H30c0.7,0,0.9,0.3,0.9,0.9v10.7H34.9z
	 M43.8,14.9v2.6c-0.7,0.8-1.5,1.2-2.1,1.2c-0.8,0-1.1-0.4-1.1-1.4s0.3-1.5,0.9-1.8C42.1,15.3,42.7,15.1,43.8,14.9L43.8,14.9z
	 M38.4,11.9c1.3-0.7,2.8-1.1,4-1.1c1.1,0,1.5,0.4,1.5,1.6v0.3c-1.6,0.3-2.1,0.4-3,0.5c-0.5,0.1-1.1,0.3-1.6,0.5
	c-1.6,0.7-2.4,1.9-2.4,3.9c0,2.4,1.1,3.6,3.3,3.6c0.8,0,1.5-0.1,2.1-0.4c0.5-0.3,0.9-0.5,1.7-1.1V20c0,0.8,0.4,1.2,1.2,1.2h3.7v-1.4
	h-0.3c-0.7,0-0.9-0.4-0.9-1.2v-6.2c0-3.4-1.1-4.5-4.4-4.5c-1.1,0-2.1,0.1-3,0.3c-1.1,0.3-1.6,0.5-2.8,1.1L38.4,11.9z M54.7,21.2
	v-8.9c0.7-0.7,1.3-1.1,2.1-1.1c0.9,0,1.1,0.4,1.1,1.8v8.2h4.1v-8.9c0-2-0.3-2.7-0.8-3.4C60.5,8.2,59.7,8,58.6,8
	C57,8,56,8.5,54.5,9.9V9.3c0-0.8-0.4-1.2-1.2-1.2h-3.8v1.5h0.3c0.7,0,0.9,0.3,0.9,0.9v10.7H54.7z M73.7,18.5h-5.6l5.3-7.7V8.1h-8.3
	c-0.9,0-1.3,0.4-1.3,1.5v2.3h1.5v-0.3c0-0.5,0.3-0.8,0.9-0.8h2.9l-5.4,7.7v2.7h10.1V18.5z M94.8,20.9V6.1c0-1.2-0.4-1.6-1.5-1.6
	h-3.4v1.8H90c0.8,0,0.9,0.1,0.9,1.1v13.6H94.8z M96.5,20.9h3.7V9.3c0-1.1-0.4-1.5-1.5-1.5h-2.2V20.9z M89.3,20.9V7.8h-2.2
	c-1.1,0-1.6,0.4-1.6,1.5v11.6H89.3z M103.8,13.4c0,6.5-4.6,11.2-10.9,11.2c-6.4,0-11-4.7-11-11.2S86.5,2,92.9,2
	C99.1,2,103.8,6.9,103.8,13.4L103.8,13.4z M106,13.4C106,5.7,100.4,0,92.9,0c-7.5,0-13.2,5.7-13.2,13.4s5.7,13.4,13.2,13.4
	C100.4,26.8,106,21.1,106,13.4L106,13.4z M4.6,39.9c-2.9,0-4.4-1.9-4.4-5c0-0.9,0-2.2,0.7-3.2C1.7,30.3,3,29.5,5,29.5
	c1.7,0,2.6,0.7,2.6,0.7v1.4c0,0-0.8-0.9-2.6-0.9c-2.5,0-3.4,2-3.4,4.2c0,2.7,1.1,4.1,3.2,4.1c0.9,0,1.5-0.3,1.5-0.3v-3.2h1.5v3.8
	C7.7,39.1,6.7,39.9,4.6,39.9z M9.5,39.9V28.8l1.5-0.1v11.2H9.5z M15.6,40c-1.9,0-3-1.4-3-3.8s1.1-4.1,3.2-4.1c1.9,0,3,1.4,3,3.8
	C18.8,38.4,17.7,40,15.6,40z M15.6,33.2c-1.2,0-1.7,0.9-1.7,2.8c0,1.6,0.4,2.8,1.7,2.8c1.3,0,1.9-0.9,1.9-2.8
	C17.5,34.5,17.1,33.2,15.6,33.2z M23.3,39.9c-1.2,0-1.7-0.5-1.7-0.5l-1.2,0.5V28.8l1.3-0.1v4.5c0,0,0.5-0.9,1.9-0.9
	c2,0,2.8,1.6,2.8,3.6C26.3,39.2,24.7,39.9,23.3,39.9z M23.3,33.2c-0.9,0-1.6,0.5-1.6,1.5v3.6c0,0,0.4,0.5,1.3,0.5c1.3,0,2-0.9,2-2.8
	C25,34.1,24.3,33.2,23.3,33.2z M31.5,39.9v-0.9c0,0-0.4,0.9-1.9,0.9c-1.6,0-2.1-1.1-2.1-2.2c0-2.3,1.9-2.4,3.2-2.4l0.8-0.1v-0.5
	c0-0.5,0-1.4-1.5-1.4c-1.2,0-1.9,0.7-1.9,0.7v-1.2c0,0,0.7-0.5,2.2-0.5c2.2,0,2.4,1.5,2.4,2.4v5.1L31.5,39.9z M31.5,36.1l-0.8,0.1
	c-1.1,0-1.9,0.3-1.9,1.4c0,0.5,0.3,1.2,1.2,1.2c0.9,0,1.5-0.5,1.5-1.4V36.1z M34.8,39.9V28.8l1.3-0.1v11.2H34.8z M41.2,39.9V29.6
	h1.5v10.3H41.2z M49.1,39.9v-4.6c0-0.8,0-1.9-1.6-1.9c-0.7,0-1.5,0.3-1.5,1.4v5.1h-1.5v-7.6h1.3v0.9c0,0,0.5-1.1,2.1-1.1
	c0.8,0,1.3,0.3,1.7,0.5c0.7,0.7,0.7,1.6,0.7,2.3v4.9H49.1z M55.2,39.9h-1.3l-2.5-7.6h1.5l1.5,4.9c0.3,0.7,0.3,1.4,0.3,1.4
	s0.1-0.5,0.4-1.4l1.6-4.9h1.2L55.2,39.9z M59.7,36.2c0,1.5,0.4,2.7,2.2,2.7c1.3,0,2-0.8,2-0.8l-0.1,1.2c0,0-0.5,0.5-2.2,0.5
	c-1.5,0-3.2-0.5-3.2-3.8c0-2.3,0.9-3.9,3-3.9c2.5,0,2.8,2.2,2.8,3.8v0.3H59.7z M61.4,33.1c-1.6,0-1.7,1.5-1.7,2.2h3.2
	C62.9,34.2,62.7,33.1,61.4,33.1z M67.4,39.9c-1.3,0-2-0.5-2-0.5l-0.1-1.2c0,0,0.8,0.8,2.1,0.8c0.8,0,1.3-0.3,1.3-0.9
	c0-0.7-0.3-0.8-0.9-1.2L67,36.4c-0.7-0.4-1.5-0.9-1.5-2.2c0-1.8,1.5-2,2.2-2c1.3,0,1.9,0.5,1.9,0.5v1.2c0,0-0.7-0.7-1.7-0.7
	c-1.1,0-1.2,0.5-1.2,0.8c0,0.7,0.4,0.8,0.9,1.2l0.8,0.4c0.8,0.4,1.5,0.9,1.5,2C69.9,39.6,68.4,39.9,67.4,39.9z M74.6,39.6
	c0,0-0.4,0.3-1.2,0.3c-0.5,0-1.1-0.1-1.5-0.7c-0.3-0.4-0.4-0.9-0.4-1.6v-4.3h-0.7v-0.9h0.7v-1.4l1.3-0.3v1.6h1.9v0.9h-1.9v4.3
	c0,0.4,0.1,0.8,0.3,0.9c0.1,0.3,0.3,0.4,0.7,0.4c0.7,0,0.9-0.4,0.9-0.4L74.6,39.6z M78.7,40c-1.9,0-3-1.4-3-3.8s0.9-4.1,3.2-4.1
	c1.9,0,3,1.4,3,3.8C81.9,38.4,80.9,40,78.7,40z M78.7,33.2c-1.2,0-1.7,0.9-1.7,2.8c0,1.6,0.4,2.8,1.7,2.8c1.2,0,1.7-0.9,1.7-2.8
	C80.5,34.5,80.1,33.2,78.7,33.2z M87.2,33.6c0,0-0.3-0.3-1.1-0.3c-0.9,0-1.3,0.8-1.3,1.6v4.9h-1.3v-7.6h1.3v1.1c0,0,0.4-1.2,1.6-1.2
	c0.7,0,0.9,0.3,0.9,0.3L87.2,33.6z M90.1,39.9c-1.5,0-2.1-0.5-2.1-0.5v-1.2c0,0,0.7,0.8,2,0.8c0.8,0,1.3-0.3,1.3-0.9
	c0-0.7-0.1-0.8-0.9-1.2l-0.8-0.4c-0.7-0.4-1.5-0.9-1.5-2.2c0-1.8,1.5-2,2.4-2c1.2,0,1.7,0.5,1.7,0.5v1.2c0,0-0.7-0.7-1.7-0.7
	c-1.1,0-1.2,0.5-1.2,0.8c0,0.7,0.4,0.8,1.1,1.2l0.8,0.4c0.7,0.4,1.5,0.9,1.5,2C92.6,39.6,91.2,39.9,90.1,39.9z"/>
</svg>
